# AST/ASF file generated using VICON BodyLanguage
# -----------------------------------------------
:version 1.10
:name VICON
:units
  mass 1.0
  length 0.45
  angle deg
:documentation
   .ast/.asf automatically generated from VICON data using
   VICON BodyBuilder and BodyLanguage model FoxedUp or BRILLIANT.MOD
:root
   order TX TY TZ RX RY RZ
   axis XYZ
   position 0 0 0  
   orientation 0 -0 0 
:bonedata
  begin
     id 1 
     name lhipjoint
     direction 0.515797 -0.759363 0.396637 
     length 2.47888 
     axis 0 -0 0  XYZ
  end
  begin
     id 2 
     name lfemur
     direction 0.34202 -0.939693 0  
     length 6.81885  
     axis 0 -0 20  XYZ
    dof rx ry rz
    limits (-160.0 20.0)
           (-70.0 70.0)
           (-60.0 70.0)
  end
  begin
     id 3 
     name ltibia
     direction 0.342037 -0.939687 0   
     length 7.89258   
     axis 0 -0 20   XYZ
    dof rx
    limits (-10.0 170.0)
  end
  begin
     id 4 
     name lfoot
     direction 0.173497 -0.476678 0.861787   
     length 2.51543   
     axis -90 -1.13533e-015 20   XYZ
    dof rx rz
    limits (-45.0 90.0)
           (-70.0 20.0)
  end
  begin
     id 5 
     name ltoes
     direction 1.53564e-011 -4.21897e-011 1   
     length 1.21388   
     axis -90 -1.13533e-015 20   XYZ
    dof rx
    limits (-90.0 20.0)
  end
  begin
     id 6 
     name rhipjoint
     direction -0.489454 -0.772941 0.403729   
     length 2.43534  
     axis 0 -0 0  XYZ 
  end
  begin
     id 7 
     name rfemur
     direction -0.34202 -0.939693 0   
     length 7.10357   
     axis 0 -0 -20   XYZ
    dof rx ry rz
    limits (-160.0 20.0)
           (-70.0 70.0)
           (-70.0 60.0)
  end
  begin
     id 8 
     name rtibia
     direction -0.34202 -0.939693 0   
     length 9.16127   
     axis 0 -0 -20   XYZ
    dof rx
    limits (-10.0 170.0)
 end
 begin
     id 9 
     name rfoot
     direction -0.270974 -0.748671 0.605033   
     length 1.74894  
     axis -90 1.13533e-015 -20   XYZ
    dof rx rz
    limits (-45.0 90.0)
           (-20.0 70.0)
  end
  begin
     id 10 
     name rtoes
     direction -1.53557e-011 -4.21759e-011 1   
     length 0.787585   
     axis -90 1.13533e-015 -20   XYZ
    dof rx
    limits (-90.0 20.0)
  end
  begin
     id 11 
     name lowerback
     direction -0.0140249 0.999561 0.0260968   
     length 2.16963   
     axis 0 -0 0   XYZ
    dof rx ry rz
    limits (-20.0 45.0)
           (-30.0 30.0)
           (-30.0 30.0)
  end
  begin
     id 12 
     name upperback
     direction 0.00860018 0.999959 -0.002711   
     length 2.1726   
     axis 0 -0 0   XYZ
    dof rx ry rz
    limits (-20.0 45.0)
           (-30.0 30.0)
           (-30.0 30.0)
  end
  begin
     id 13 
     name thorax
     direction 0.015211 0.999782 -0.0143191   
     length 2.17061   
     axis 0 -0 0   XYZ
    dof rx ry rz
    limits (-20.0 45.0)
           (-30.0 30.0)
           (-30.0 30.0)
  end
  begin
     id 14 
     name lowerneck
     direction -0.0140143 0.999447 0.030145   
     length 2.26749   
     axis 0 -0 0   XYZ
    dof rx ry rz
    limits (-20.0 45.0)
           (-30.0 30.0)
           (-30.0 30.0)
  end
  begin
     id 15 
     name upperneck
     direction 0.118062 0.961438 -0.248392   
     length 2.22728   
     axis 0 -0 0   XYZ
    dof rx ry rz
    limits (-20.0 45.0)
           (-30.0 30.0)
           (-30.0 30.0)
  end
  begin
     id 16
     name head
     direction 0.0431885 0.9954 -0.085514  
     length 2.28786  
     axis 0 -0 0   XYZ
    dof rx ry rz
    limits (-20.0 45.0)
           (-30.0 30.0)
           (-30.0 30.0)
  end
  begin
     id 17 
     name lclavicle
     direction 0.912126 0.409548 0.0172323  
     length 4.31571  
     axis 0 -0 0   XYZ
    dof ry rz
    limits (-20.0 10.0)
           (0.0 20.0)
  end
  begin
     id 18 
     name lhumerus
     direction 1 -4.48977e-011 1.93091e-027   
     length 5.13658   
     axis 180 -30 -90   XYZ
    dof rx ry rz
    limits (-60.0 90.0)
           (-90.0 90.0)
           (-90.0 90.0)
  end
  begin
     id 19
     name lradius
     direction 1 -4.48916e-011 6.84018e-027   
     length 3.22473   
     axis 180 -30 -90   XYZ
    dof rx
    limits (-10.0 170.0)
  end
  begin
     id 20
     name lwrist
     direction 1 -4.48987e-011 7.01981e-027   
     length 1.61236   
     axis -4.37994e-015 90 90   XYZ
    dof ry
    limits (-180.0 0.0)
 end
  begin
     id 21 
     name lhand
     direction 1 -4.49037e-011 1.40335e-026   
     length 0.936406   
     axis -8.96029e-015 90 90   XYZ
    dof rx rz
    limits (-90.0 90.0)
           (-45.0 45.0)
  end
  begin
     id 22 
     name lfingers
     direction 1 -4.48886e-011 2.8104e-026   
     length 0.754955   
     axis -1.79203e-014 90 90   XYZ
    dof rx
    limits (0.0 90.0)
  end
  begin
     id 23
     name lthumb
     direction 0.707107 -6.34937e-011 0.707107   
     length 1.08397   
     axis -90 45 -4.48555e-014   XYZ
    dof rx rz
    limits (-45.0 45.0)
           (-45.0 45.0)
  end
  begin
     id 24 
     name rclavicle
     direction -0.947962 0.317997 0.0156638   
     length 4.86918  
     axis 0 -0 0   XYZ 
    dof ry rz
    limits (-10.0 20.0)
           (-20.0 0.0)
  end
  begin
     id 25 
     name rhumerus
     direction -1 -4.48951e-011 2.80534e-018  
     length 5.60911   
     axis 180 30 90   XYZ
    dof rx ry rz
    limits (-90.0 60.0)
           (-90.0 90.0)
           (-90.0 90.0)
  end
  begin
     id 26 
     name rradius
     direction -1 -4.4898e-011 2.11315e-027   
     length 3.38704   
     axis 180 30 90   XYZ
    dof rx
    limits (-10.0 170.0)
  end
  begin
     id 27 
     name rwrist
     direction -1 -4.48933e-011 7.02314e-027   
     length 1.69352   
     axis -4.37994e-015 -90 -90   XYZ
    dof ry
    limits (-180.0 0.0)
  end
  begin
     id 28
     name rhand
     direction -1 -4.48937e-011 1.40458e-026   
     length 0.755878   
     axis -8.96029e-015 -90 -90   XYZ
    dof rx rz
    limits (-90.0 90.0)
           (-45.0 45.0)
  end
  begin
     id 29
     name rfingers
     direction -1 -4.4901e-011 2.80737e-026   
     length 0.609409   
     axis -1.79203e-014 -90 -90   XYZ
    dof rx
    limits (0.0 90.0)
  end
  begin
     id 30
     name rthumb
     direction -0.707107 -6.34968e-011 0.707107   
     length 0.874992   
     axis -90 -45 4.48555e-014   XYZ
    dof rx rz
    limits (-45.0 45.0)
           (-45.0 45.0)
  end
:hierarchy
  begin
    root lhipjoint rhipjoint lowerback
    lhipjoint lfemur
    lfemur ltibia
    ltibia lfoot
    lfoot ltoes
    rhipjoint rfemur
    rfemur rtibia
    rtibia rfoot
    rfoot rtoes
    lowerback upperback
    upperback thorax
    thorax lowerneck lclavicle rclavicle
    lowerneck upperneck
    upperneck head
    lclavicle lhumerus
    lhumerus lradius
    lradius lwrist
    lwrist lhand lthumb
    lhand lfingers
    rclavicle rhumerus
    rhumerus rradius
    rradius rwrist
    rwrist rhand rthumb
    rhand rfingers
  end

#!OML:ASF C:\ViconDB\ViconDB\414\Spring2016\041811\Spring2016.ASF
:FULLY-SPECIFIED
:DEGREES
31
root 6.7519 16.7213 34.4128 -164.088 -3.24293 -181.85
lowerback 12.3583 -0.436641 -2.1988
upperback 3.46634 -1.16991 0.874682
thorax -3.23469 -0.723467 2.3347
lowerneck -10.9233 -1.73051 -13.7389
upperneck 28.0133 -5.94015 14.0308
head 11.6625 -3.33427 6.77294
rclavicle -5.1684e-015 -3.57812e-015
rhumerus -62.0653 -7.05726 -88.3814
rradius 76.4751
rwrist 5.43304
rhand -36.3613 -17.1941
rfingers 7.12502
rthumb -9.45847 -46.9619
lclavicle -5.1684e-015 -3.57812e-015
lhumerus -45.7871 -26.8303 101.211
lradius 101.929
lwrist -11.7523
lhand -37.0475 10.5245
lfingers 7.12502
lthumb -10.1205 40.2611
rfemur -37.265 -10.1403 23.3326
rtibia 65.746
rfoot -170.236 17.1187
rtoes -5.04419
lfemur -4.949 -14.427 -17.0792
ltibia 40.7039
lfoot -24.7392 -2.06473
ltoes -26.477
32
root 6.7681 16.711 34.2551 -164.223 -3.22785 -181.577
lowerback 12.586 -0.232097 -1.67299
upperback 3.59811 -0.858948 0.825727
thorax -3.24684 -0.58031 1.94356
lowerneck -10.8691 -1.82029 -13.2249
upperneck 27.7576 -6.2866 14.4154
head 11.6097 -3.39352 6.77307
rclavicle 2.0276e-014 -6.95746e-015
rhumerus -62.6275 -8.2403 -88.1622
rradius 76.9368
rwrist 5.57357
rhand -36.7444 -17.1842
rfingers 7.12502
rthumb -9.82805 -46.9349
lclavicle 2.0276e-014 -6.95746e-015
lhumerus -46.2205 -27.7338 101.127
lradius 102.185
lwrist -12.0946
lhand -37.2271 9.90017
lfingers 7.12502
lthumb -10.2937 39.6283
rfemur -36.4499 -10.3053 23.5515
rtibia 65.7198
rfoot -170.063 17.4001
rtoes -4.66665
lfemur -5.60312 -13.9636 -16.6502
ltibia 42.7151
lfoot -23.2025 -2.89459
ltoes -26.9145
33
root 6.7658 16.6952 34.1034 -164.064 -3.55039 -181.43
lowerback 12.6349 -0.302732 -1.28851
upperback 3.56274 -0.890368 1.25255
thorax -3.30714 -0.597667 2.17832
lowerneck -10.8389 -1.81368 -13.8856
upperneck 27.5983 -6.22339 14.8802
head 11.5657 -3.37932 7.08499
rclavicle -5.1684e-015 -1.59028e-015
rhumerus -63.0126 -8.80165 -87.0504
rradius 77.213
rwrist 6.06197
rhand -36.6906 -16.4916
rfingers 7.12502
rthumb -9.77612 -46.2447
lclavicle -5.1684e-015 -1.59028e-015
lhumerus -46.7693 -27.3084 101.871
lradius 101.974
lwrist -12.4841
lhand -37.2833 8.94163
lfingers 7.12502
lthumb -10.348 38.667
rfemur -35.9334 -10.8952 23.7458
rtibia 65.5906
rfoot -169.959 17.7182
rtoes -4.40361
lfemur -6.89013 -13.9925 -16.1635
ltibia 45.1624
lfoot -21.0277 -3.77265
ltoes -25.9082
34
root 6.76692 16.6861 33.9608 -164.003 -3.97953 -181.368
lowerback 12.9679 -0.314097 -0.959364
upperback 3.54721 -0.863713 1.63581
thorax -3.50421 -0.589878 2.39642
lowerneck -10.8455 -1.86922 -14.2967
upperneck 27.3345 -6.2413 15.2629
head 11.4948 -3.37305 7.30212
rclavicle -1.61016e-014 8.74653e-015
rhumerus -63.2189 -9.34363 -86.0844
rradius 77.7852
rwrist 5.82454
rhand -36.0883 -16.8113
rfingers 7.12502
rthumb -9.19498 -46.5908
lclavicle -1.61016e-014 8.74653e-015
lhumerus -47.4129 -26.8304 102.67
lradius 101.307
lwrist -12.6639
lhand -37.7273 8.04739
lfingers 7.12502
lthumb -10.7762 37.751
rfemur -35.2659 -11.5548 23.9228
rtibia 65.2742
rfoot -169.929 17.9209
rtoes -4.26139
lfemur -8.61129 -14.0826 -15.7861
ltibia 48.0065
lfoot -18.0273 -3.97191
ltoes -26.1058
35
root 6.76472 16.679 33.8034 -164.002 -3.88857 -181.13
lowerback 13.1211 -0.106009 -0.485154
upperback 3.63307 -0.540368 1.81692
thorax -3.51485 -0.441298 2.26911
lowerneck -10.8151 -2.03028 -14.2716
upperneck 26.9537 -6.4806 15.5658
head 11.3991 -3.42854 7.36891
rclavicle 8.94531e-015 3.18055e-015
rhumerus -63.1481 -10.5353 -85.1631
rradius 78.1238
rwrist 6.73033
rhand -36.2803 -16.4108
rfingers 7.12502
rthumb -9.38024 -46.1821
lclavicle 8.94531e-015 3.18055e-015
lhumerus -47.9508 -26.4666 102.813
lradius 100.217
lwrist -13.2333
lhand -37.0038 7.17015
lfingers 7.12502
lthumb -10.0783 36.9088
rfemur -34.301 -11.7588 24.0455
rtibia 64.864
rfoot -170.056 18.3026
rtoes -4.16328
lfemur -10.4466 -13.5757 -15.4659
ltibia 51.1451
lfoot -14.7224 -3.66968
ltoes -25.4076
36
root 6.75929 16.6646 33.6451 -164.128 -3.60834 -180.79
lowerback 13.4416 0.185258 0.0727464
upperback 3.7055 -0.098114 1.97585
thorax -3.63119 -0.235503 2.05313
lowerneck -10.7896 -2.15053 -14.3701
upperneck 26.5401 -6.64551 15.9712
head 11.2869 -3.45224 7.5085
rclavicle -7.95139e-015 -1.11319e-014
rhumerus -63.0998 -11.2062 -84.5761
rradius 78.827
rwrist 6.8464
rhand -36.4787 -16.0351
rfingers 7.12502
rthumb -9.5717 -45.7977
lclavicle -7.95139e-015 -1.11319e-014
lhumerus -48.6667 -25.8188 102.797
lradius 98.616
lwrist -14.7489
lhand -35.6629 7.3039
lfingers 7.12502
lthumb -8.78448 37.1011
rfemur -33.1362 -11.7826 24.2062
rtibia 64.2702
rfoot -170.269 18.5983
rtoes -3.66165
lfemur -12.3458 -12.8965 -15.1584
ltibia 54.4815
lfoot -11.1203 -2.96844
ltoes -23.6797
37
root 6.76036 16.6509 33.4831 -164.319 -3.27228 -180.42
lowerback 13.7991 0.492827 0.478318
upperback 3.8256 0.34035 2.18259
thorax -3.71212 -0.0359754 1.97091
lowerneck -10.8391 -2.2931 -14.3814
upperneck 26.145 -6.82373 16.282
head 11.1961 -3.47965 7.59251
rclavicle 1.03368e-014 3.97569e-015
rhumerus -62.6695 -11.6898 -83.9801
rradius 79.5907
rwrist 6.88677
rhand -36.6205 -15.9372
rfingers 7.12502
rthumb -9.7085 -45.6934
lclavicle 1.03368e-014 3.97569e-015
lhumerus -49.3578 -24.7788 102.321
lradius 96.7822
lwrist -17.5119
lhand -33.233 7.92721
lfingers 7.12502
lthumb -6.43912 37.8093
rfemur -31.8264 -11.6919 24.4253
rtibia 63.5369
rfoot -170.24 19.0083
rtoes -4.26397
lfemur -14.3444 -12.1667 -14.8435
ltibia 57.9627
lfoot -7.26561 -1.97759
ltoes -21.4195
38
root 6.75613 16.6425 33.3061 -164.542 -2.8371 -180.038
lowerback 14.1462 0.854211 0.874573
upperback 3.91459 0.854148 2.41686
thorax -3.81876 0.200821 1.90687
lowerneck -10.7379 -2.48409 -14.492
upperneck 25.6686 -7.04493 16.5582
head 11.0563 -3.54534 7.67009
rclavicle 1.03368e-014 2.8625e-014
rhumerus -62.185 -11.8885 -83.3522
rradius 80.5801
rwrist 6.1922
rhand -36.8514 -15.4986
rfingers 7.12502
rthumb -9.93127 -45.2443
lclavicle 1.03368e-014 2.8625e-014
lhumerus -50.5467 -24.4036 103.192
lradius 94.3283
lwrist -14.9252
lhand -34.3118 7.0933
lfingers 7.12502
lthumb -7.48055 36.941
rfemur -30.331 -11.5802 24.5329
rtibia 62.6768
rfoot -170.168 19.5283
rtoes -4.74814
lfemur -16.3817 -11.2244 -14.589
ltibia 61.5099
lfoot -3.09229 -1.04515
ltoes -18.0721
39
root 6.75369 16.6327 33.1351 -164.821 -2.40911 -179.505
lowerback 14.6457 1.24044 1.30204
upperback 3.9924 1.40696 2.73323
thorax -4.01784 0.451636 1.90012
lowerneck -10.5444 -2.67768 -14.6027
upperneck 25.1383 -7.28435 16.8564
head 10.8842 -3.62355 7.75085
rclavicle -3.45885e-014 -3.97569e-014
rhumerus -61.379 -11.9142 -82.7958
rradius 81.4319
rwrist 6.59329
rhand -37.12 -16.0019
rfingers 7.12502
rthumb -10.1904 -45.735
lclavicle -3.45885e-014 -3.97569e-014
lhumerus -51.6026 -23.5766 103.425
lradius 91.6824
lwrist -14.5924
lhand -34.3273 7.9499
lfingers 7.12502
lthumb -7.49549 37.7971
rfemur -28.7533 -11.2382 24.7988
rtibia 61.7152
rfoot -170.155 19.8796
rtoes -4.61373
lfemur -18.6126 -10.1775 -14.1184
ltibia 65.1774
lfoot 1.20567 -0.448091
ltoes -13.7875
